<?xml version="1.0" encoding="utf-8"?>
<!-- Generator: Adobe Illustrator 23.0.0, SVG Export Plug-In . SVG Version: 6.00 Build 0)  -->
<svg version="1.1" id="Layer_1" xmlns="http://www.w3.org/2000/svg" xmlns:xlink="http://www.w3.org/1999/xlink" x="0px" y="0px"
	 viewBox="0 0 746.4 210" style="enable-background:new 0 0 746.4 210;" xml:space="preserve">
<style type="text/css">
	.st0{fill:#F89728;}
	.st1{fill:#FFFFFF;}
	.st2{fill:#00A4E4;}
</style>
<g id="LOGO">
	<path class="st0" d="M745.4,183.5c0,13.8-11.1,24.9-24.9,24.9c-13.8,0-24.9-11.1-24.9-24.9s11.1-24.9,24.9-24.9
		S745.4,169.7,745.4,183.5L745.4,183.5"/>
	<path class="st1" d="M706,183.7c-0.1-8.1,6.5-14.7,14.6-14.8s14.7,6.5,14.8,14.6c0.1,8.1-6.5,14.7-14.6,14.8c0,0-0.1,0-0.1,0
		c-8.1,0.1-14.6-6.4-14.7-14.5C706,183.8,706,183.7,706,183.7z M733.1,183.7c0-6.8-5.6-12.4-12.4-12.4c-6.8,0-12.4,5.6-12.4,12.4
		s5.6,12.4,12.4,12.4C727.5,196.1,733.1,190.5,733.1,183.7z M727.6,191.6h-2.7l-4.8-7.4h-2.7v7.4h-2.2v-16h7c2.9,0,5.7,0.8,5.7,4.2
		c0,3.1-2.2,4.3-5.1,4.4L727.6,191.6z M720.1,182c2,0,5.5,0.4,5.5-2.2c0-1.6-2.2-2-3.9-2h-4.3v4.1L720.1,182L720.1,182z"/>
	<path class="st2" d="M163.2,201.9h50.6v-55.6c-17.6,1.6-34.5,2.9-50.6,4L163.2,201.9z M262.2,201.9h63l-47.9-62.4
		c-17.5,2.2-34.7,4-51.4,5.6L262.2,201.9z M654.1,57.3L672,22.4c-13.5,8.1-27.5,15.8-42,23C638.9,47.3,647.2,51.4,654.1,57.3
		 M634.2,83.1l-12.9-3.9c-8.8-2.8-22.5-7.2-22.5-18.6c0-0.3,0-0.6,0.1-0.9c-16.8,7.3-34.1,14.1-51.8,20.2
		c4.4,27.1,23.9,34.5,51.8,42.4c10.8,3.1,30.7,8,30.7,22.2c0,13.7-12.7,19.6-24.5,19.6c-17.3,0-32.3-9-45-20.1l-21.7,40.8
		c19.9,13.9,43.9,22.2,68.5,22.2c19.6,0,40-5.4,55.3-18.3c15.5-13.2,20.2-33.1,20.2-52.5C682.3,104.8,661.3,91.1,634.2,83.1
		 M480.1,101.2c0,33.6-24.8,58.1-55,58.1c-22.6,0-42.1-13.7-50.6-34.7c-17.7,3.3-35.4,6.2-52.8,8.8c12.7,45.3,52.2,75,103.3,75
		c62.5,0,107.7-44.4,107.7-107.5c0-5.3-0.5-10.5-1.3-15.7c-16.9,5.6-34.1,10.7-51.4,15.5C480.1,100.9,480.1,101,480.1,101.2
		 M0.1,154.3V202h50.6v-47.4C18.8,154.9,0.1,154.3,0.1,154.3 M370.1,100.5c0,0.9,0,1.9,0.1,2.8h0.1c-0.1-1.2-0.1-2.4-0.2-3.6V100.5
		 M306.6,66.4c0-41.6-29.2-59.9-67.7-59.9h-75.7v121.6c34.7-2.3,73.2-5.7,113.6-10.7C296.2,108.6,306.6,88.8,306.6,66.4 M253.9,69.5
		c0,21.2-18.6,24.3-35.1,24.3h-4.9V43.4h4.9c16.5,0,35.1,3.1,35.1,24.3L253.9,69.5 M613.3,1.3c-36,0-62.8,22.1-66.7,56.6
		c38.8-13.6,76-29.7,109.9-48.7C642.4,4.3,626.8,1.3,613.3,1.3"/>
	<path class="st2" d="M425.1,0C369,0,317.4,41.3,317.4,100.2l1,11.6c17.1-2.5,34.4-5.3,51.8-8.5c0-0.9-0.1-1.8-0.1-2.8v-1.8
		c0-26.9,24.8-51.4,55-51.4c22.8,0,42.5,14,50.8,32.4c16.9-4.5,33.7-9.5,50.2-14.8C510.4,25.5,469.1,0,425.1,0 M148.3,70.6
		c0-44.7-28.9-64.1-70.8-64.1H0v125.7c0,0,45.2,1.5,114.5-1.4C136.5,121.8,148.3,102.3,148.3,70.6 M95.6,72.1
		c0,23.8-18.1,23.8-36.4,23.8h-8.5V45.5h8.5c19.6,0,36.4,0.3,36.4,24.8V72.1"/>
</g>
</svg>
