<svg id="Capa_1" enable-background="new 0 0 510 510" height="512" viewBox="0 0 510 510" width="512" xmlns="http://www.w3.org/2000/svg"><g><path d="m480 209.649v30.351h-53.236c-3.143-36.293-17.573-69.402-39.759-95.792l40.062-40.062 21.461 21.461 21.213-21.213-64.136-64.136-21.213 21.213 21.461 21.461-40.062 40.062c-26.389-22.185-59.498-36.615-95.791-39.758v-53.236h30.351v-30h-90.701v30h30.35v53.236c-36.293 3.143-69.402 17.573-95.792 39.759l-40.062-40.062 21.461-21.461-21.213-21.213-64.136 64.136 21.213 21.213 21.461-21.461 40.062 40.062c-22.185 26.389-36.615 59.498-39.758 95.791h-53.236v-30.351h-30v90.701h30v-30.35h53.236c3.143 36.293 17.573 69.402 39.759 95.792l-40.062 40.062-21.461-21.461-21.213 21.213 64.136 64.136 21.213-21.213-21.461-21.461 40.062-40.062c26.391 22.185 59.499 36.616 95.792 39.759v53.235h-30.351v30h90.701v-30h-30.351v-53.236c36.293-3.143 69.402-17.573 95.792-39.759l40.062 40.062-21.461 21.461 21.213 21.213 64.136-64.136-21.213-21.213-21.461 21.461-40.062-40.062c22.185-26.391 36.616-59.499 39.759-95.792h53.235v30.351h30v-90.701zm-225 187.775c-78.533 0-142.424-63.891-142.424-142.424s63.891-142.424 142.424-142.424 142.424 63.891 142.424 142.424-63.891 142.424-142.424 142.424z"/><path d="m240 240h30v30h-30z"/><path d="m330 240h30v30h-30z"/><path d="m195 315h30v30h-30z"/><path d="m285 315h30v30h-30z"/><path d="m195 170h30v30h-30z"/><path d="m285 170h30v30h-30z"/><path d="m150 240h30v30h-30z"/></g></svg>